<svg width="256" height="256" viewBox="0 0 256 256" fill="none" xmlns="http://www.w3.org/2000/svg">
  <defs>
    <linearGradient id="spgBg" x1="32" y1="24" x2="224" y2="232" gradientUnits="userSpaceOnUse">
      <stop stop-color="#11365A" />
      <stop offset="1" stop-color="#07111F" />
    </linearGradient>
    <linearGradient id="spgShield" x1="128" y1="58" x2="128" y2="182" gradientUnits="userSpaceOnUse">
      <stop stop-color="#7AD9FF" />
      <stop offset="1" stop-color="#38BDF8" />
    </linearGradient>
  </defs>
  <rect x="20" y="20" width="216" height="216" rx="56" fill="url(#spgBg)" />
  <circle cx="196" cy="60" r="26" fill="#F3AA34" fill-opacity="0.12" />
  <circle cx="68" cy="198" r="22" fill="#4DC6FF" fill-opacity="0.10" />
  <path d="M128 52L174 70V118C174 150 153.2 176.6 128 186C102.8 176.6 82 150 82 118V70L128 52Z" stroke="url(#spgShield)" stroke-width="12" stroke-linejoin="round" />
  <path d="M99 104C99 95.1634 106.163 88 115 88H154C162.837 88 170 95.1634 170 104V121C170 129.837 162.837 137 154 137H136L122 151V137H115C106.163 137 99 129.837 99 121V104Z" fill="#EAF6FF" fill-opacity="0.12" stroke="#B7EBFF" stroke-width="8" stroke-linejoin="round" />
  <path d="M116 108H152" stroke="#4DC6FF" stroke-width="8" stroke-linecap="round" />
  <path d="M116 123H142" stroke="#4DC6FF" stroke-width="8" stroke-linecap="round" />
  <circle cx="150" cy="123" r="5" fill="#F3AA34" />
</svg>
